<svg width="12" height="13" viewBox="0 0 12 13" fill="none" xmlns="http://www.w3.org/2000/svg">
<path d="M2.16602 0C1.76819 0 1.38666 0.158035 1.10536 0.43934C0.824051 0.720644 0.666016 1.10218 0.666016 1.5V3.16667C0.666016 3.36365 0.704814 3.5587 0.780196 3.74069C0.855578 3.92268 0.966068 4.08804 1.10536 4.22733C1.38666 4.50863 1.76819 4.66667 2.16602 4.66667H8.49935C8.69633 4.66667 8.89139 4.62787 9.07337 4.55249C9.25536 4.4771 9.42072 4.36661 9.56001 4.22733C9.6993 4.08804 9.80979 3.92268 9.88517 3.74069C9.96055 3.5587 9.99935 3.36365 9.99935 3.16667V1.5C9.99935 1.10218 9.84131 0.720644 9.56001 0.43934C9.2787 0.158035 8.89717 0 8.49935 0H2.16602ZM1.66602 1.5C1.66602 1.36739 1.71869 1.24021 1.81246 1.14645C1.90623 1.05268 2.03341 1 2.16602 1H8.49935C8.63196 1 8.75913 1.05268 8.8529 1.14645C8.94667 1.24021 8.99935 1.36739 8.99935 1.5V3.16667C8.99935 3.29927 8.94667 3.42645 8.8529 3.52022C8.75913 3.61399 8.63196 3.66667 8.49935 3.66667H2.16602C2.03341 3.66667 1.90623 3.61399 1.81246 3.52022C1.71869 3.42645 1.66602 3.29927 1.66602 3.16667V1.5ZM3.79935 8.66667C3.54135 8.66667 3.33268 8.89067 3.33268 9.16667C3.33268 9.44267 3.54135 9.66667 3.79935 9.66667H6.86602C7.12402 9.66667 7.33268 9.44267 7.33268 9.16667C7.33268 8.89067 7.12402 8.66667 6.86602 8.66667H3.79935ZM9.56802 8.96333L9.51935 9.01933C9.43469 9.10401 9.32245 9.1555 9.20305 9.16443C9.08364 9.17336 8.965 9.13914 8.86868 9.068L8.81268 9.01933L7.47935 7.686C7.39467 7.60134 7.34318 7.4891 7.33425 7.3697C7.32532 7.25029 7.35954 7.13165 7.43068 7.03533L7.47935 6.97933L8.81268 5.646C8.90201 5.55736 9.02149 5.50567 9.14726 5.50124C9.27302 5.49681 9.39584 5.53997 9.49118 5.62211C9.58653 5.70424 9.6474 5.81931 9.66164 5.94435C9.67588 6.06938 9.64245 6.19519 9.56802 6.29667L9.51935 6.35267L9.04002 6.83333H10.04C10.2462 6.83326 10.445 6.75675 10.5981 6.61859C10.7512 6.48044 10.8476 6.29044 10.8687 6.08533L10.8733 6V4.5C10.8734 4.37332 10.9215 4.25137 11.008 4.15881C11.0945 4.06624 11.2129 4.00995 11.3393 4.00132C11.4657 3.99268 11.5906 4.03234 11.6889 4.11229C11.7872 4.19223 11.8514 4.3065 11.8687 4.432L11.8733 4.5V6C11.8734 6.46697 11.6952 6.91634 11.3752 7.25642C11.0552 7.59649 10.6175 7.80164 10.1513 7.83L10.04 7.83333H9.04068L9.51935 8.31267C9.60403 8.39732 9.65551 8.50956 9.66444 8.62897C9.67337 8.74837 9.63916 8.86702 9.56802 8.96333ZM9.99935 10.8333V9.48267L9.99068 9.49067C9.72068 9.76133 9.35068 9.87067 8.99935 9.82067V10.8333C8.99935 10.9659 8.94667 11.0931 8.8529 11.1869C8.75913 11.2807 8.63196 11.3333 8.49935 11.3333H2.16602C2.03341 11.3333 1.90623 11.2807 1.81246 11.1869C1.71869 11.0931 1.66602 10.9659 1.66602 10.8333V7.5C1.66602 7.36739 1.71869 7.24021 1.81246 7.14645C1.90623 7.05268 2.03341 7 2.16602 7H6.71401C6.75268 6.872 6.81268 6.74933 6.89535 6.638L6.91002 6.618L6.99002 6.52467L7.51535 6H2.16602C1.76819 6 1.38666 6.15804 1.10536 6.43934C0.824051 6.72064 0.666016 7.10217 0.666016 7.5V10.8333C0.666016 11.2312 0.824051 11.6127 1.10536 11.894C1.38666 12.1753 1.76819 12.3333 2.16602 12.3333H8.49935C8.89717 12.3333 9.2787 12.1753 9.56001 11.894C9.84131 11.6127 9.99935 11.2312 9.99935 10.8333Z" fill="#262626"/>
</svg>
