<svg width="15" height="13" viewBox="0 0 15 13" fill="none" xmlns="http://www.w3.org/2000/svg">
<path d="M8.81944 11.8867L10.7194 10L8.81944 8.11333L9.7661 7.17333L11.6661 9.04667L13.5328 7.17333L14.4794 8.11333L12.6061 10L14.4794 11.8867L13.5328 12.8267L11.6661 10.9333L9.7661 12.8267L8.81944 11.8867ZM7.6661 11.2533C7.69277 11.4533 7.6261 11.6667 7.47277 11.8067C7.41109 11.8685 7.33783 11.9175 7.25719 11.951C7.17654 11.9844 7.09008 12.0016 7.00277 12.0016C6.91546 12.0016 6.829 11.9844 6.74835 11.951C6.6677 11.9175 6.59445 11.8685 6.53277 11.8067L3.85944 9.13333C3.78673 9.06225 3.73144 8.97532 3.6979 8.87933C3.66436 8.78334 3.65348 8.68089 3.6661 8.58V5.16667L0.47277 1.08C0.364509 0.94102 0.315659 0.764839 0.336895 0.589953C0.358131 0.415068 0.447726 0.255698 0.586103 0.146667C0.71277 0.0533334 0.85277 0 0.999436 0H10.3328C10.4794 0 10.6194 0.0533334 10.7461 0.146667C10.8845 0.255698 10.9741 0.415068 10.9953 0.589953C11.0165 0.764839 10.9677 0.94102 10.8594 1.08L7.6661 5.16667V11.2533ZM2.35944 1.33333L4.99944 4.70667V8.38667L6.33277 9.72V4.7L8.97277 1.33333H2.35944Z" fill="#262626"/>
</svg>
